<svg width="66" height="66" viewBox="0 0 66 66" fill="none" xmlns="http://www.w3.org/2000/svg">
<rect x="0.377441" y="0.115005" width="65.2066" height="65.2066" rx="12.2262" fill="#48B774"/>
<path fill-rule="evenodd" clip-rule="evenodd" d="M46.5655 31.1179C46.5655 31.6844 46.105 32.1449 45.5385 32.1449H45.5263V32.1204C44.953 32.1204 44.4884 31.6572 44.4871 31.0839V31.0812V27.628C44.4871 23.4806 42.2184 21.2119 38.0832 21.2119H27.8947C23.7568 21.2119 21.4746 23.4942 21.4746 27.628V37.8165C21.4746 41.9381 23.7568 44.2203 27.8906 44.2203H38.0792C42.213 44.2203 44.483 41.9381 44.483 37.8165C44.483 37.2432 44.9476 36.7773 45.5222 36.7773C46.0968 36.7773 46.5614 37.2432 46.5614 37.8165C46.5655 43.0534 43.3161 46.3029 38.0832 46.3029H27.8906C22.6456 46.3029 19.3961 43.0534 19.3961 37.8206V27.6321C19.3961 22.3829 22.6456 19.1335 27.8906 19.1335H38.0792C43.2916 19.1335 46.5655 22.3829 46.5655 27.628V31.1179ZM31.3692 34.5025L37.0965 28.7738C37.4945 28.3758 38.1398 28.3758 38.5378 28.7738C38.9358 29.1719 38.9358 29.8171 38.5378 30.2152L32.0891 36.6638C31.8976 36.854 31.6381 36.9613 31.3692 36.9613C31.0975 36.9613 30.8394 36.854 30.6478 36.6638L27.4242 33.4388C27.0261 33.0408 27.0261 32.3955 27.4242 31.9975C27.8222 31.5995 28.4675 31.5995 28.8655 31.9975L31.3692 34.5025Z" fill="white"/>
</svg>
