<svg width="93" height="93" viewBox="0 0 93 93" fill="none" xmlns="http://www.w3.org/2000/svg">
<rect y="46.3668" width="65.2066" height="65.2066" rx="12.2262" transform="rotate(-45 0 46.3668)" fill="#48B774"/>
<path fill-rule="evenodd" clip-rule="evenodd" d="M44.9208 33.3009L43.0351 35.1865C41.4598 33.9685 39.1813 34.0819 37.7375 35.5256L35.2573 38.0058C33.8135 39.4496 33.6992 41.7271 34.9172 43.3025L33.0422 45.1795C31.0201 47.2015 31.0163 50.4867 33.0326 52.503L36.3629 55.8333C36.605 56.0754 36.9517 56.1801 37.288 56.1109C40.5712 55.4385 43.7815 53.9669 46.573 51.8575C46.9908 51.5472 47.0974 50.9852 46.8438 50.5395C46.279 49.5463 46.4423 48.336 47.2502 47.5281C48.0494 46.7289 49.278 46.5704 50.2357 47.14C50.6401 47.3811 51.1521 47.311 51.4767 46.9863C51.5104 46.9527 51.5411 46.9181 51.5699 46.8797C53.6957 44.0719 55.1731 40.8463 55.8435 37.5553C55.9108 37.2191 55.807 36.8733 55.565 36.6312L52.2346 33.3009C50.2184 31.2846 46.937 31.2846 44.9208 33.3009ZM53.7303 37.6783C53.1328 40.2373 52.0003 42.7435 50.4221 44.996C48.8323 44.4591 47.0398 44.8567 45.8093 46.0872C44.5884 47.3081 44.184 49.1035 44.6999 50.7009C42.4607 52.2696 39.9642 53.4002 37.41 53.9986L34.4735 51.0621C33.2516 49.8402 33.2555 47.848 34.4841 46.6194L37.0546 44.045C37.2467 43.8529 37.3533 43.5945 37.3533 43.3236C37.3514 43.0528 37.2448 42.7944 37.0536 42.6032L36.6972 42.2488C35.9249 41.4764 35.9259 40.219 36.6982 39.4467L39.1784 36.9665C39.8249 36.32 40.8124 36.2144 41.5703 36.6514L38.9767 39.245C38.579 39.6427 38.579 40.2882 38.9767 40.6859C39.3744 41.0836 40.0199 41.0836 40.4176 40.6859L46.3617 34.7418C47.5835 33.5199 49.5719 33.5199 50.7938 34.7418L53.7303 37.6783ZM50.0735 48.9014L51.3165 50.1444C51.7142 50.542 51.7142 51.1876 51.3165 51.5852C50.9188 51.9829 50.2733 51.9829 49.8756 51.5852L48.6326 50.3422C48.235 49.9446 48.235 49.299 48.6326 48.9014C49.0303 48.5037 49.6758 48.5037 50.0735 48.9014ZM57.5777 40.1329C57.2002 40.5104 57.1934 41.105 57.5335 41.5027C57.5335 41.5027 59.0656 43.3307 59.5651 43.8916C60.1165 44.5141 60.5171 45.3911 60.5843 46.125C60.6813 47.1615 60.3826 47.904 59.5181 48.7724C58.9503 49.342 55.8842 52.4101 53.5672 54.727C53.1686 55.1257 53.1686 55.7712 53.5663 56.1689C53.964 56.5665 54.6095 56.5665 55.0072 56.1689C57.2434 53.9326 60.4258 50.7483 60.9618 50.2104C62.2403 48.9261 62.7658 47.5668 62.614 45.9358C62.5055 44.7648 61.9358 43.4959 61.0896 42.5401C60.7408 42.1477 59.8539 41.1119 59.3599 40.535L59.3596 40.5346C59.1572 40.2982 59.0209 40.139 59.0147 40.1329C58.618 39.7362 57.9744 39.7362 57.5777 40.1329ZM48.504 59.786C48.6932 59.5987 49.0832 59.2087 49.5952 58.6967C49.9929 58.2991 50.6413 58.2962 51.039 58.6939C51.4366 59.0915 51.4328 59.7409 51.0341 60.1395C50.5154 60.6583 50.137 61.0367 49.9429 61.2288C48.6577 62.5083 47.2984 63.0338 45.6664 62.881C44.4974 62.7725 43.2275 62.2038 42.2727 61.3566C41.8853 61.0135 40.8735 60.1474 40.292 59.6496C40.0415 59.4351 39.8708 59.2891 39.8645 59.2827C39.4678 58.886 39.4678 58.2424 39.8645 57.8457C40.242 57.4682 40.8356 57.4624 41.2352 57.8024C41.2352 57.8024 43.0632 59.3346 43.6242 59.8321C44.2467 60.3835 45.1227 60.785 45.8556 60.8513C46.895 60.9493 47.6366 60.6496 48.504 59.786Z" fill="white"/>
</svg>
