<svg width="87" height="87" viewBox="0 0 87 87" fill="none" xmlns="http://www.w3.org/2000/svg">
<rect x="27.72" width="65.2066" height="65.2066" rx="12.2262" transform="rotate(25 27.72 0)" fill="#FF8345"/>
<path d="M44.564 58.6965C44.4108 58.6295 44.2784 58.5213 44.1822 58.3836L39.4099 52.1022L32.4415 52.5041C31.3032 52.5728 30.3229 51.705 30.2547 50.5655C30.2537 50.5516 30.2527 50.5376 30.2523 50.5224C30.2364 50.0519 30.3691 49.5906 30.6319 49.2005L34.6973 43.3109L32.307 36.6144C31.923 35.506 32.489 34.292 33.5855 33.8725C34.0148 33.704 34.4878 33.6862 34.9279 33.8225L41.5766 35.7746L47.021 31.309C47.887 30.5737 49.1856 30.6786 49.9221 31.5452C50.2417 31.9205 50.4146 32.3984 50.4117 32.8901L50.4935 39.9567L56.2784 43.8159C56.747 44.1258 57.0691 44.6147 57.1711 45.1674C57.3529 46.2175 56.7697 47.2496 55.7769 47.6365L49.1567 50.0655L48.1777 53.8044C48.024 54.3622 47.4527 54.6969 46.8915 54.5536C46.3418 54.4082 46.014 53.8447 46.16 53.2937L47.1279 49.5496C47.3154 48.8681 47.8169 48.3165 48.478 48.0687L55.1242 45.6129L49.345 41.7414C48.7611 41.3447 48.4207 40.6764 48.4421 39.9714L48.35 32.93L42.8199 37.4606C42.2931 37.9314 41.5629 38.0991 40.8836 37.9067L34.235 35.9546L36.596 42.6015C36.8333 43.2593 36.7372 43.9894 36.3403 44.5642L32.2749 50.4538L39.2363 50.0636C39.9326 50.0106 40.606 50.3246 41.0129 50.8921L45.7766 57.1695C46.0638 57.5597 46.0523 58.0955 45.7485 58.4739C45.4532 58.8563 44.9347 58.9847 44.4941 58.7883L44.564 58.6965Z" fill="white"/>
</svg>
