<svg width="531" height="518" viewBox="0 0 531 518" fill="none" xmlns="http://www.w3.org/2000/svg">
<rect x="130.72" width="65.2066" height="65.2066" rx="12.2262" transform="rotate(25 130.72 0)" fill="#FF8345"/>
<path d="M147.564 58.6965C147.411 58.6295 147.278 58.5213 147.182 58.3836L142.41 52.1022L135.441 52.5041C134.303 52.5728 133.323 51.705 133.255 50.5655C133.254 50.5516 133.253 50.5376 133.252 50.5224C133.236 50.0519 133.369 49.5906 133.632 49.2005L137.697 43.3109L135.307 36.6144C134.923 35.506 135.489 34.292 136.586 33.8725C137.015 33.704 137.488 33.6862 137.928 33.8225L144.577 35.7746L150.021 31.309C150.887 30.5737 152.186 30.6786 152.922 31.5452C153.242 31.9205 153.415 32.3984 153.412 32.8901L153.494 39.9567L159.278 43.8159C159.747 44.1258 160.069 44.6147 160.171 45.1674C160.353 46.2175 159.77 47.2496 158.777 47.6365L152.157 50.0655L151.178 53.8044C151.024 54.3622 150.453 54.6969 149.892 54.5536C149.342 54.4082 149.014 53.8447 149.16 53.2937L150.128 49.5496C150.315 48.8681 150.817 48.3165 151.478 48.0687L158.124 45.6129L152.345 41.7414C151.761 41.3447 151.421 40.6764 151.442 39.9714L151.35 32.93L145.82 37.4606C145.293 37.9314 144.563 38.0991 143.884 37.9067L137.235 35.9546L139.596 42.6015C139.833 43.2593 139.737 43.9894 139.34 44.5642L135.275 50.4538L142.236 50.0636C142.933 50.0106 143.606 50.3246 144.013 50.8921L148.777 57.1695C149.064 57.5597 149.052 58.0955 148.748 58.4739C148.453 58.8563 147.935 58.9847 147.494 58.7883L147.564 58.6965Z" fill="white"/>
<rect x="465.377" y="87.115" width="65.2066" height="65.2066" rx="12.2262" fill="#48B774"/>
<path fill-rule="evenodd" clip-rule="evenodd" d="M511.566 118.118C511.566 118.684 511.105 119.145 510.539 119.145H510.526V119.12C509.953 119.12 509.488 118.657 509.487 118.084V118.081V114.628C509.487 110.481 507.218 108.212 503.083 108.212H492.895C488.757 108.212 486.475 110.494 486.475 114.628V124.817C486.475 128.938 488.757 131.22 492.891 131.22H503.079C507.213 131.22 509.483 128.938 509.483 124.817C509.483 124.243 509.948 123.777 510.522 123.777C511.097 123.777 511.561 124.243 511.561 124.817C511.566 130.053 508.316 133.303 503.083 133.303H492.891C487.646 133.303 484.396 130.053 484.396 124.821V114.632C484.396 109.383 487.646 106.133 492.891 106.133H503.079C508.292 106.133 511.566 109.383 511.566 114.628V118.118ZM496.369 121.503L502.096 115.774C502.494 115.376 503.14 115.376 503.538 115.774C503.936 116.172 503.936 116.817 503.538 117.215L497.089 123.664C496.898 123.854 496.638 123.961 496.369 123.961C496.097 123.961 495.839 123.854 495.648 123.664L492.424 120.439C492.026 120.041 492.026 119.396 492.424 118.997C492.822 118.599 493.467 118.599 493.865 118.997L496.369 121.503Z" fill="white"/>
<rect y="471.367" width="65.2066" height="65.2066" rx="12.2262" transform="rotate(-45 0 471.367)" fill="#48B774"/>
<path fill-rule="evenodd" clip-rule="evenodd" d="M44.9208 458.301L43.0351 460.187C41.4598 458.969 39.1813 459.082 37.7375 460.526L35.2573 463.006C33.8135 464.45 33.6992 466.727 34.9172 468.302L33.0422 470.179C31.0201 472.202 31.0163 475.487 33.0326 477.503L36.3629 480.833C36.605 481.075 36.9517 481.18 37.288 481.111C40.5712 480.439 43.7815 478.967 46.573 476.857C46.9908 476.547 47.0974 475.985 46.8438 475.54C46.279 474.546 46.4423 473.336 47.2502 472.528C48.0494 471.729 49.278 471.57 50.2357 472.14C50.6401 472.381 51.1521 472.311 51.4767 471.986C51.5104 471.953 51.5411 471.918 51.5699 471.88C53.6957 469.072 55.1731 465.846 55.8435 462.555C55.9108 462.219 55.807 461.873 55.565 461.631L52.2346 458.301C50.2184 456.285 46.937 456.285 44.9208 458.301ZM53.7303 462.678C53.1328 465.237 52.0003 467.743 50.4221 469.996C48.8323 469.459 47.0398 469.857 45.8093 471.087C44.5884 472.308 44.184 474.103 44.6999 475.701C42.4607 477.27 39.9642 478.4 37.41 478.999L34.4735 476.062C33.2516 474.84 33.2555 472.848 34.4841 471.619L37.0546 469.045C37.2467 468.853 37.3533 468.595 37.3533 468.324C37.3514 468.053 37.2448 467.794 37.0536 467.603L36.6972 467.249C35.9249 466.476 35.9259 465.219 36.6982 464.447L39.1784 461.967C39.8249 461.32 40.8124 461.214 41.5703 461.651L38.9767 464.245C38.579 464.643 38.579 465.288 38.9767 465.686C39.3744 466.084 40.0199 466.084 40.4176 465.686L46.3617 459.742C47.5835 458.52 49.5719 458.52 50.7938 459.742L53.7303 462.678ZM50.0735 473.901L51.3165 475.144C51.7142 475.542 51.7142 476.188 51.3165 476.585C50.9188 476.983 50.2733 476.983 49.8756 476.585L48.6326 475.342C48.235 474.945 48.235 474.299 48.6326 473.901C49.0303 473.504 49.6758 473.504 50.0735 473.901ZM57.5777 465.133C57.2002 465.51 57.1934 466.105 57.5335 466.503C57.5335 466.503 59.0656 468.331 59.5651 468.892C60.1165 469.514 60.5171 470.391 60.5843 471.125C60.6813 472.161 60.3826 472.904 59.5181 473.772C58.9503 474.342 55.8842 477.41 53.5672 479.727C53.1686 480.126 53.1686 480.771 53.5663 481.169C53.964 481.567 54.6095 481.567 55.0072 481.169C57.2434 478.933 60.4258 475.748 60.9618 475.21C62.2403 473.926 62.7658 472.567 62.614 470.936C62.5055 469.765 61.9358 468.496 61.0896 467.54C60.7408 467.148 59.8539 466.112 59.3599 465.535L59.3596 465.535C59.1572 465.298 59.0209 465.139 59.0147 465.133C58.618 464.736 57.9744 464.736 57.5777 465.133ZM48.504 484.786C48.6932 484.599 49.0832 484.209 49.5952 483.697C49.9929 483.299 50.6413 483.296 51.039 483.694C51.4366 484.092 51.4328 484.741 51.0341 485.14C50.5154 485.658 50.137 486.037 49.9429 486.229C48.6577 487.508 47.2984 488.034 45.6664 487.881C44.4974 487.772 43.2275 487.204 42.2727 486.357C41.8853 486.014 40.8735 485.147 40.292 484.65C40.0415 484.435 39.8708 484.289 39.8645 484.283C39.4678 483.886 39.4678 483.242 39.8645 482.846C40.242 482.468 40.8356 482.462 41.2352 482.802C41.2352 482.802 43.0632 484.335 43.6242 484.832C44.2467 485.384 45.1227 485.785 45.8556 485.851C46.895 485.949 47.6366 485.65 48.504 484.786Z" fill="white"/>
</svg>
